<svg width="48" height="48" xmlns="http://www.w3.org/2000/svg"><g fill-rule="nonzero" fill="none"><path d="M45.907 31.277a5.506 5.506 0 01-2.47 4.574H4.463a5.49 5.49 0 013.02-10.063h32.935a5.506 5.506 0 015.49 5.489z" fill="#455A64"/><path d="M45.907 40.426a5.506 5.506 0 01-5.489 5.489H7.482a5.49 5.49 0 01-3.019-10.064h38.974a5.506 5.506 0 012.47 4.575z" fill="#607D8B"/><path d="M8.434 42.256a.915.915 0 01-.018-1.83h.018a.915.915 0 010 1.83z" fill="#FFC107"/><path d="M40.418 42.256a1.83 1.83 0 110-3.66 1.83 1.83 0 010 3.66z" fill="#65FD58"/><path d="M12.093 42.256a.915.915 0 01-.018-1.83h.018a.915.915 0 010 1.83zM8.434 33.107a.915.915 0 01-.018-1.83h.018a.915.915 0 010 1.83z" fill="#FFC107"/><path d="M40.418 33.107a1.83 1.83 0 110-3.66 1.83 1.83 0 010 3.66z" fill="#3EF8AF"/><path d="M12.093 33.107a.915.915 0 01-.018-1.83h.018a.915.915 0 010 1.83z" fill="#FFC107"/><path d="M33.5 8.71A11.333 11.333 0 0023.083 2a11.198 11.198 0 00-11.28 10.127 6.013 6.013 0 00-5.236 5.884 6.038 6.038 0 006.115 5.947h20.801a7.747 7.747 0 007.85-7.625A7.747 7.747 0 0033.5 8.711z" fill="#37B4FF"/></g></svg>