<svg width="48" height="48" xmlns="http://www.w3.org/2000/svg"><g fill-rule="nonzero" fill="none"><path d="M7.156 14.891h8.09c.654 0 1.197.443 1.426 1.015l1.656 4.142h16.328V3.719a.862.862 0 00-.86-.86H8.017a.862.862 0 00-.86.86v11.172z" fill="#FFF"/><path d="M16.672 15.906c-.23-.572-.772-1.014-1.427-1.014H3.72a.862.862 0 00-.86.859v24.922c0 .945.774 1.719 1.72 1.719h28.247c-6.58-6.311-4.59-14.682-4.59-14.682 2.11 0 6.74-1.64 8.311-3.194.528.522 1.4 1.053 2.406 1.53v-4.28c0-.945-.773-1.718-1.719-1.718H18.328l-1.656-4.142z" fill="#FFC144"/><path d="M35.563 34.496l-1.011-1.011a1.718 1.718 0 10-2.43 2.43l2.225 2.226c.672.672 1.76.672 2.43 0l4.196-4.194a1.718 1.718 0 10-2.43-2.43l-2.98 2.979z" stroke="#E3A11B" stroke-width="1.5" fill="#FFF"/><path d="M45.694 27.51a.86.86 0 00-.836-.66c-1.17 0-3.27-.583-5.045-1.354v-3.73a2.581 2.581 0 00-2.579-2.578h-1.718V3.72A1.72 1.72 0 0033.796 2H8.017a1.72 1.72 0 00-1.72 1.72v10.312H3.72A1.72 1.72 0 002 15.751v24.922a2.581 2.581 0 002.578 2.578h27.914a19.728 19.728 0 003.63 2.637.859.859 0 00.851 0c5.948-3.395 8.006-8.206 8.685-11.644.735-3.716.065-6.612.036-6.733zM8.016 3.72h25.78v15.468H18.91l-1.44-3.6c-.378-.945-1.251-1.556-2.225-1.556h-7.23V3.719zM3.719 40.672v-.86h4.468a.86.86 0 100-1.718H3.72V15.75h11.526c.303 0 .534.238.629.475l1.656 4.14a.86.86 0 00.798.541h18.907a.86.86 0 01.859.86v2.848a5.406 5.406 0 01-.943-.71.86.86 0 00-1.208 0c-1.41 1.394-5.797 2.945-7.707 2.945a.86.86 0 00-.836.66c-.028.122-.699 3.018.036 6.734a16.455 16.455 0 003.432 7.288H4.578a.86.86 0 01-.86-.86zm40.253-6.762c-.858 4.34-3.355 7.78-7.425 10.234-4.048-2.44-6.54-5.858-7.411-10.166a16.462 16.462 0 01-.171-5.455c2.217-.25 5.72-1.502 7.582-2.885 1.863 1.384 5.367 2.636 7.584 2.885.14.97.314 2.992-.159 5.387z" fill="#FFC144"/><path d="M11.152 7.157H30.66a.86.86 0 100-1.719H11.152a.86.86 0 100 1.719zM31.52 9.735a.86.86 0 00-.86-.86H11.152a.86.86 0 100 1.72H30.66a.86.86 0 00.86-.86zM30.66 12.313h-9.754a.86.86 0 100 1.719h9.754a.86.86 0 100-1.719zM30.66 15.75h-5.07a.86.86 0 100 1.72h5.07a.86.86 0 100-1.72z" fill="#162630"/><path d="M12.054 38.095a.86.86 0 100 1.718.86.86 0 100-1.718z" fill="#000"/><path d="M36.547 24.516c-1.572 1.554-6.2 3.193-8.31 3.193 0 0-1.992 8.372 4.589 14.683a18.823 18.823 0 003.721 2.75c10.968-6.262 8.31-17.433 8.31-17.433-1.4 0-3.914-.723-5.904-1.664-1.006-.476-1.878-1.007-2.406-1.529zm-4.426 8.969a1.718 1.718 0 012.43 0l1.012 1.01 2.98-2.979a1.718 1.718 0 112.43 2.43l-4.195 4.195a1.718 1.718 0 01-2.43 0l-2.227-2.226a1.719 1.719 0 010-2.43z" fill="#E3A11B"/></g></svg>