<svg width="48" height="48" xmlns="http://www.w3.org/2000/svg"><g transform="translate(1)" fill-rule="nonzero" fill="none"><g fill="#D5DFE5"><path d="M23 40.542c-9.673 0-17.542-7.87-17.542-17.542 0-9.673 7.87-17.542 17.542-17.542 9.673 0 17.542 7.87 17.542 17.542 0 9.673-7.87 17.542-17.542 17.542zM23 6C13.626 6 6 13.626 6 23c0 9.374 7.626 17 17 17 9.374 0 17-7.626 17-17 0-9.374-7.626-17-17-17z"/><path d="M23 44.7a21.557 21.557 0 01-15.344-6.356A21.557 21.557 0 011.301 23 21.557 21.557 0 017.656 7.656 21.557 21.557 0 0123 1.301a21.557 21.557 0 0115.344 6.355A21.557 21.557 0 0144.699 23a21.557 21.557 0 01-6.355 15.344A21.557 21.557 0 0123 44.699zM23 2C11.42 2 2 11.42 2 23s9.42 21 21 21 21-9.42 21-21S34.58 2 23 2z"/></g><path d="M22.443 32.889c0 .61.497 1.107 1.108 1.107h6.15c-1.387 6.848-7.442 12.003-14.7 12.003-5.438 0-10.2-2.893-12.832-7.225h7.887a2.246 2.246 0 002.245-2.243c0-.6-.235-1.163-.658-1.587a2.23 2.23 0 00-1.587-.657h-.808c-1.29 0-2.34-1.05-2.34-2.339 0-.624.243-1.211.684-1.654a2.324 2.324 0 011.656-.686h7.775a2.258 2.258 0 001.595-3.852 2.246 2.246 0 00-1.595-.66h-4.826a2.094 2.094 0 01-1.48-3.57 2.08 2.08 0 011.48-.614c.845 0 1.64-.329 2.237-.926a3.145 3.145 0 00.927-2.238c0-.507-.088-1-.262-1.467a5.744 5.744 0 01-.114-.282H15c8.285 0 15 6.716 15 15 0 .262-.006.523-.02.782h-6.43c-.61 0-1.107.497-1.107 1.108z" fill="#355E77"/><path d="M21.748 32.888c0 .995.807 1.802 1.802 1.802h5.991A15 15 0 0030 31.086H23.55c-.995 0-1.802.807-1.802 1.802zM17.023 30.302H9.248a1.644 1.644 0 100 3.291h.808c.811 0 1.546.329 2.078.86a2.938 2.938 0 01-2.077 5.015H2.617A14.929 14.929 0 010 31c0-8.285 6.716-15 15-15 .249 0 .497.006.742.018a4.89 4.89 0 01.313 1.73c0 1.066-.432 2.032-1.13 2.73a3.845 3.845 0 01-2.728 1.13 1.395 1.395 0 00-1.399 1.399c0 .77.626 1.397 1.399 1.397h4.826a2.946 2.946 0 012.95 2.95 2.95 2.95 0 01-2.95 2.949zM20.461 41.52h-1.954a2.05 2.05 0 010-4.102h1.954a2.05 2.05 0 010 4.102z" fill="#6A99B7"/><g transform="translate(18.328)"><circle fill="#FFD496" cx="13.859" cy="13.812" r="13.812"/><circle fill="#FC9744" cx="13.859" cy="13.812" r="10.833"/></g><path d="M36.42 11.535c0-1.237-.716-2.31-1.757-2.825V7.683a.972.972 0 10-1.943 0v.7h-.77v-.7a.972.972 0 10-1.944 0v.7h-.366a.972.972 0 00-.971.972v8.722c0 .537.435.972.971.972h.366v.695a.972.972 0 101.944 0v-.695h.77v.695a.972.972 0 101.943 0v-1.022a3.156 3.156 0 001.758-2.826 3.14 3.14 0 00-.88-2.18 3.14 3.14 0 00.88-2.18zm-1.943 4.362a1.21 1.21 0 01-1.208 1.208h-2.657v-2.417h2.657a1.21 1.21 0 011.208 1.209zm-3.865-3.153v-2.417h2.657a1.21 1.21 0 010 2.417h-2.657z" fill="#FFF"/><circle fill="#45708B" cx="13.686" cy="9.183" r="2.134"/><circle fill="#FF6900" cx="34.912" cy="40.845" r="2.134"/><circle fill="#05AA69" cx="43.542" cy="29.486" r="2.134"/><circle fill="#CD1955" cx="4.095" cy="12.399" r="2.134"/></g></svg>