<svg width="48" height="48" xmlns="http://www.w3.org/2000/svg"><g fill-rule="nonzero" fill="none"><path d="M43.93 26.317C43.93 38.292 34.104 48 21.987 48c-2.973 0-5.806-.584-8.39-1.643C6.532 43.465 1.33 37.031.253 29.297a21.432 21.432 0 01-.207-2.98c0-11.977 9.823-21.684 21.94-21.684 12.118 0 21.942 9.707 21.942 21.684z" fill="#075B8D"/><path d="M46.668 24.714L34.14 32.913a4.308 4.308 0 01-3.03.65 4.322 4.322 0 00-3.038.647l-1.677 1.098-9.39-13.68 2.304-9.835a10.166 10.166 0 00-1.46-7.983 2.426 2.426 0 01-.412-1.353c0-.796.39-1.576 1.112-2.049a2.504 2.504 0 013.1.285L23.14 2.12a15.748 15.748 0 013.85 5.833l.81 2.153 8.334-5.441a2.862 2.862 0 013.981.857c.82 1.298.4 3.013-.892 3.857-.016.01-.017.027-.012.04.008.013.023.022.04.015a2.882 2.882 0 012.564.265c.32.203.602.474.825.807a2.77 2.77 0 01.417 2.095c-.22 1.103-1.032 1.672-1.191 1.779a.06.06 0 00-.016.083l.002.002a.06.06 0 00.08.016 3.02 3.02 0 012.293.379c.323.203.608.473.829.803a2.787 2.787 0 01-.801 3.892l-.097.064c-.019.014-.024.038-.015.054a.023.023 0 00.01.01c.015.012.038.013.057-.001a2.81 2.81 0 012.41.306c.329.208.62.488.85.832a2.79 2.79 0 01-.8 3.893z" fill="#FDD7BD"/><path d="M26.513 37.904l-5.285 3.46-7.63 4.993C6.532 43.465 1.33 37.032.253 29.297L9.109 23.5l5.391-3.528a1.359 1.359 0 011.87.377l10.525 15.705c.411.615.24 1.441-.382 1.849z" fill="#00A0FF"/><path d="M26.513 37.904l-5.285 3.46L9.109 23.5l5.391-3.528a1.359 1.359 0 011.87.377l10.525 15.705c.411.615.24 1.441-.382 1.849z" fill="#4FBCFD"/><g fill="#FAC5AA"><path d="M41.816 9.7l-4.17 2.204a1.36 1.36 0 01-1.722-.383l3.287-2.101c.008.013.023.022.04.015a2.884 2.884 0 012.564.264zM44.225 14.86l-4.079 2.156a1.36 1.36 0 01-1.722-.382l3.287-2.102.142-.066a.06.06 0 00.08.016 3.018 3.018 0 012.292.379zM46.62 19.99l-3.593 1.898a1.362 1.362 0 01-1.723-.383l2.848-1.82a.046.046 0 00.056-.003 2.812 2.812 0 012.411.307z"/></g></g></svg>