<svg width="48" height="48" xmlns="http://www.w3.org/2000/svg"><g transform="translate(1 2)" fill="none" fill-rule="evenodd"><path d="M28.562 39.884l-1.088-3.807-4.486-2.775-4.487 2.775-.793 2.776h7.784l.295 1.031c.419 1.468 2.011 2.669 3.537 2.669l1.388.694 1.388-.694c-1.527 0-3.119-1.2-3.538-2.669z" fill="#2E434C" fill-rule="nonzero"/><path d="M25.492 36.077l4.526 7.17H13.876v-.694c1.526 0 3.118-1.2 3.537-2.669l.295-1.031 7.784-2.776zm-22.717 0A2.783 2.783 0 010 33.302v-5.55l43.2-11.1v8.324l2.776 2.776v5.55a2.783 2.783 0 01-2.776 2.775z" fill="#455A64" fill-rule="nonzero"/><path d="M43.2 0a2.783 2.783 0 012.776 2.775v24.977H0V2.775A2.783 2.783 0 012.775 0z" fill="#04BDF0" fill-rule="nonzero"/><path fill="#FFF" d="M16.337 16.058l4.422.064v-5.75h4.423v5.688l4.422-.002-6.565 6.95z"/><circle fill="#36F1A8" fill-rule="nonzero" cx="22.988" cy="31.915" r="1.388"/><path d="M37.326 43.94H8.65a.694.694 0 110-1.387h28.677a.694.694 0 110 1.387z" fill="#2E434C" fill-rule="nonzero"/></g></svg>