<?xml version="1.0" encoding="UTF-8"?>
<svg width="140px" height="40px" viewBox="0 0 140 40" version="1.1" xmlns="http://www.w3.org/2000/svg" xmlns:xlink="http://www.w3.org/1999/xlink">
    <title>udun-web56</title>
    <g id="icons" stroke="none" stroke-width="1" fill="none" fill-rule="evenodd">
        <g transform="translate(-38.000000, -36.000000)" id="udun-web56">
            <g transform="translate(38.000000, 36.000000)">
                <rect id="container" fill-opacity="0" fill="#FFFFFF" x="0" y="0" width="140" height="40"></rect>
                <path d="M0.833333333,10.8160219 L3.68880826,12.4042256 L3.68890718,18.6348686 C3.68895828,21.8534485 5.41352004,24.816824 8.19270111,26.4106675 L8.44824058,26.5517586 L8.44824058,18.285361 L5.97333578,16.8584831 L5.97333578,13.6748037 L11.3040844,16.6397648 L11.3040844,31.4919605 L7.02277147,29.112443 C3.20249327,26.9891648 0.833333333,22.9619127 0.833333333,18.5912336 L0.833333333,10.8160219 Z M24.0593631,10.8160219 L24.0593631,18.5912336 C24.0593631,22.9619127 21.6902031,26.9891648 17.869925,29.112443 L13.5886119,31.4919605 L13.5884275,28.2247691 L16.9716224,26.2714981 C19.5758115,24.8884056 21.203663,22.1805887 21.2035978,19.2319033 L21.2035193,15.6773825 L16.4440869,18.2857669 L16.4440869,23.9380436 L13.5884275,25.5867109 L13.5886119,16.6405012 L24.0593631,10.8160219 Z M5.51363528,7.54573429 L12.4463482,11.3312843 L19.3327735,7.56014648 C20.3419912,8.02179723 21.2971235,8.58123354 22.1860501,9.22633489 L12.4461637,14.6268282 L2.66016494,9.20360303 C3.54945878,8.56137743 4.50463957,8.00473049 5.51363528,7.54573429 Z" id="img" fill="#05AA69" fill-rule="nonzero"></path>
                <path d="M57.841996,16.0168799 C57.841996,16.2180656 57.8216221,18.4244134 57.8175474,20.1855271 L57.8172464,21.126483 C57.8188964,21.8420055 57.8258263,22.3507307 57.841996,22.3880656 C58.0385015,23.942977 60.0835063,24.3348404 61.0204442,24.0535657 C61.7137154,23.84498 62.2167245,23.0390896 62.2167245,22.0805268 L62.216615,21.9435788 L62.216615,21.9435788 L62.2157806,21.6222772 C62.2139555,21.0967715 62.2096759,20.3868313 62.2046413,19.6484638 L62.2011916,19.1537194 C62.1906187,17.6671236 62.1785354,16.2054916 62.1785354,16.0168799 C62.8828108,16.0374224 64.1460436,16.0311017 64.847175,16.0168799 L64.847175,22.0527559 L64.847175,22.0527559 C64.847175,23.7293039 64.4946156,25.2519774 62.9304323,26.0325935 C61.1634555,26.9159223 58.668009,26.9001204 56.9654859,25.8350693 C55.6481135,25.0102076 55.2362381,23.6496601 55.2000811,22.1753384 C55.1859327,21.5715066 55.1786375,20.6060385 55.1750451,19.6157541 L55.1735429,19.1201031 C55.1733391,19.0376698 55.1731574,18.9554539 55.1729959,18.8736505 L55.1722554,18.3893381 C55.1721676,18.3099641 55.1720399,18.2313922 55.1720399,18.1538176 L55.1720399,17.0893509 C55.1720399,17.026621 55.1721712,16.9658629 55.1722265,16.9072715 L55.1731155,16.2152665 C55.1731635,16.1832149 55.1732063,16.1543046 55.173242,16.1287306 L55.1733564,16.0168799 L55.1733564,16.0168799 C55.9971071,16.0358422 57.0198173,16.0137195 57.841996,16.0168799 Z M129.243183,12.7777778 L129.243183,16.4661832 L134.580463,16.4661832 L134.580463,19.14866 L129.243183,19.14866 C129.243183,20.4610419 129.183139,21.5862521 129.243183,22.8370655 C129.269869,23.4365486 129.910344,24.3663869 130.911083,24.4400002 C131.911823,24.5136134 132.529578,23.4954861 132.59677,23.1601766 C132.663962,22.8248669 132.635123,22.5017559 132.522274,22.1491565 L132.522274,22.1491565 L135.220936,22.1491565 C135.581203,23.7110529 134.617156,25.6164369 133.062674,26.2321222 C131.786658,26.7452178 130.359755,26.7787156 129.059715,26.3260953 C127.535254,25.8173448 126.811385,24.6605044 126.64126,23.1601766 C126.603082,22.7371119 126.580844,19.2763124 126.574544,12.7777778 L126.574544,12.7777778 L129.243183,12.7777778 Z M54.1591312,12.7777778 L54.1591312,21.6634819 C54.1591312,24.2380327 52.406368,26.4166455 49.5490097,26.5994049 C48.3562482,26.704582 47.1592844,26.4522231 46.1068734,25.8736903 C44.0181306,24.6937386 43.3318044,22.3693225 43.5121401,20.394456 C43.584604,19.2876515 43.9924403,18.2305004 44.6799452,17.3673921 C45.9160328,15.8556345 48.2043705,15.3066103 49.9639569,15.959576 C50.2379621,16.0561356 50.5928133,16.2876963 50.8233317,16.4661832 C51.0491891,16.6471683 51.1688793,16.7688975 51.4904916,17.1368025 L51.4904916,12.7777778 L54.1591312,12.7777778 Z M100.156481,15.6887575 C102.110311,15.6115998 103.800476,16.1449945 105.010634,17.7585977 C105.681238,18.6406475 106.048585,19.7131599 106.058537,20.8180696 C106.078819,22.6497272 106.058537,24.4612567 106.058537,26.3398799 L106.058537,26.3398799 L103.148073,26.3398799 L103.148073,24.9342672 C102.736718,25.3701635 102.283906,25.7656155 101.795941,26.115116 C100.122678,27.1013931 97.5434861,26.6082546 96.1440296,25.0013608 C94.5180907,23.1395111 94.372737,20.9891585 95.2888065,18.8019044 C96.1609315,16.6951628 97.908562,15.7726246 100.156481,15.6887575 Z M114.465398,20.7044965 C114.748942,17.3044572 117.327514,15.3596616 120.910163,15.7251491 C123.895704,16.0336339 125.82046,18.6121646 125.533581,22.0054977 L125.533581,22.0054977 L117.160724,22.0054977 C117.154053,22.9108336 117.934001,24.124703 119.642559,24.4297861 C121.351118,24.7348692 122.804897,23.3176518 122.804897,23.0382513 L122.804897,23.0382513 L125.200001,23.0382513 C124.806377,24.8891602 122.741517,26.9915513 119.195562,26.5657081 C115.926479,26.1733959 114.22522,23.588159 114.465398,20.7044965 Z M113.430294,12.7777778 L113.430294,26.525471 L110.761654,26.525471 L110.761654,12.7777778 L113.430294,12.7777778 Z M109.748922,12.7777778 L109.748922,26.525471 L107.080282,26.525471 L107.080282,12.7777778 L109.748922,12.7777778 Z M33.1316026,12.7777778 L33.1316026,20.4898983 L33.1316026,20.4898983 C33.1316026,22.1664463 34.4659224,23.8429943 36.4674021,23.8429943 C38.4688819,23.8429943 39.8032017,22.1664463 39.8032017,20.4898983 C39.8032017,19.1730619 39.8051424,17.6706644 39.8057894,16.1888873 L39.8057376,14.4338481 C39.8053754,13.8609313 39.804599,13.3045093 39.8032017,12.7777778 L42.4718413,12.7777778 L42.4718413,12.7777778 L42.4718413,21.4958271 L42.4718413,21.4958271 C42.4718413,23.1723751 40.4703616,26.525471 36.4674021,26.525471 C32.4644427,26.525471 30.462963,23.1723751 30.462963,21.4958271 L30.462963,12.7777778 L30.462963,12.7777778 L33.1316026,12.7777778 L33.1316026,12.7777778 Z M81.8222841,12.7777778 L86.8259833,26.525471 L83.4901839,26.525471 L78.4864845,12.7777778 L81.8222841,12.7777778 Z M86.4924034,12.7777778 L89.8281512,21.9425926 L93.1640025,12.7777778 L96.4998019,12.7777778 L91.4961027,26.525471 L88.1603031,26.525471 L83.1566039,12.7777778 L86.4924034,12.7777778 Z M67.652036,16.5128529 C69.3545591,15.4478017 71.8500056,15.4319997 73.6169824,16.3153285 C75.1811656,17.0959446 75.5337251,18.6186181 75.5337251,20.2951661 L75.5337251,20.2951661 L75.5337251,26.3310422 C74.8325938,26.3168205 73.569361,26.3104996 72.8650856,26.3310422 L72.8650856,26.3310422 L72.8655144,26.2227347 C72.8676122,25.842654 72.8770522,24.6748319 72.8859679,23.4415235 L72.8911914,22.6994582 C72.8967855,21.8790499 72.9014472,21.093737 72.9028457,20.5575211 L72.9032746,20.2673953 C72.9032746,19.3088324 72.4002655,18.502942 71.7069943,18.2943564 C70.7700564,18.0130818 68.7250516,18.404945 68.5285461,19.9598565 C68.5167651,19.9870582 68.5115291,20.4842681 68.5101109,21.1900726 L68.5100673,22.1204331 C68.5124671,23.7821411 68.5257754,25.8599661 68.5281753,26.2625993 L68.5285461,26.3310422 C67.7063674,26.3342026 66.6836573,26.3120798 65.8599065,26.3310422 L65.8599065,26.3310422 L65.8601102,25.7598434 C65.8601399,25.7117303 65.860174,25.6610956 65.860213,25.608139 L65.8609593,24.8739992 C65.8610481,24.8056644 65.8611443,24.7358069 65.8612486,24.6646262 L65.8619771,24.2232641 C65.8647637,22.709789 65.8713,20.8268983 65.8866312,20.1725836 C65.9227882,18.698262 66.3346636,17.3377144 67.652036,16.5128529 Z M100.394578,18.1192831 C98.5933287,18.1072363 97.3631046,19.2958589 97.3631046,21.0747771 C97.3463093,22.9219608 98.5345463,24.1547749 100.335795,24.1547749 C102.08666,24.1587708 103.354672,22.9340077 103.367269,21.1631207 C103.379865,19.3922337 102.195827,18.13133 100.394578,18.1192831 Z M48.849327,18.4782017 C48.116808,18.4702844 47.4131949,18.7549469 46.9037048,19.2653469 C46.3942148,19.775747 46.1237309,20.4669212 46.1557661,21.1765735 C46.1887565,22.7402744 47.3453575,23.8504831 48.8920204,23.8430319 C50.4386832,23.8354294 51.4904916,22.7308657 51.4904916,21.1351758 C51.4827292,19.539486 50.4173366,18.4650297 48.849327,18.4782017 Z M119.807261,17.8418781 C118.354682,17.8418781 117.368817,18.7677433 117.220769,20.0070527 L117.220769,20.0070527 L122.924986,20.0070527 C122.513743,18.5295131 121.25984,17.8418781 119.807261,17.8418781 Z" id="font" fill="#162630" fill-rule="nonzero"></path>
            </g>
        </g>
    </g>
</svg>