<svg xmlns="http://www.w3.org/2000/svg" viewBox="0 0 155.32 168.4"><defs><style>.cls-1{fill:#0abe5f;}</style></defs><g id="图层_2" data-name="图层 2"><g id="图层_1-2" data-name="图层 1"><g id="Udun--12"><path class="cls-1" d="M130.16,41.77a.39.39,0,0,1,.15,0c.12.05.14.12.13.42v5c0,4.72,0,9.59,0,14.39a10.33,10.33,0,0,1-2.27,5.95,23.27,23.27,0,0,1-6.86,6.33c-.73.46-1.48.91-2.19,1.34a40.08,40.08,0,0,0-5.76,3.92,30.45,30.45,0,0,0-6.64,8.18c0,.09-.1.17-.14.26a35.42,35.42,0,0,0-1.42,3.71,5.55,5.55,0,0,0-.25,1.51v25.63c0,8.88,0,17.89,0,26.79a24,24,0,0,1-.7,6.32,13.06,13.06,0,0,1-3.85,6.72c-1.07.91-2.24,1.75-3.37,2.57l-.8.58-1.3.95c-2.57,1.88-5.23,3.81-7.75,5.84a.64.64,0,0,1-.42.18l-.13,0c-.14,0-.16-.11-.16-.41V80.9h0A13.49,13.49,0,0,1,91.6,70.21a40.47,40.47,0,0,1,3.83-2.81c1-.66,2-1.33,2.91-2.06,3.08-2.37,6.27-4.74,9.35-7l2.72-2c1-.74,2-1.48,3-2.19,1.63-1.18,3.3-2.4,4.93-3.64s3.37-2.53,5-3.74c1.28-.93,2.6-1.89,3.89-2.85l1.83-1.42.56-.44A.93.93,0,0,1,130.16,41.77ZM.25,56.17c.16,0,.35.17.53.33l.18.15c1.38,1.12,2.84,2.19,4.25,3.22l2.2,1.64,1.3,1C10.77,64,12.9,65.64,15,67.26A9.37,9.37,0,0,1,17.64,71a22.12,22.12,0,0,1,1.66,9.26c0,.23,0,.46,0,.68a18.18,18.18,0,0,1-.22,3.21c-.09.74-.18,1.5-.23,2.26a44.15,44.15,0,0,0,.45,11.46,24.44,24.44,0,0,0,2.64,7.5,11.84,11.84,0,0,0,3.37,3.89c1.9,1.35,3.79,2.78,5.61,4.16s3.58,2.72,5.42,4c1.36,1,2.73,2,4.06,3.06l2.58,2,3.28,2.42c1.82,1.34,3.7,2.72,5.51,4.12,3.69,2.87,7.51,5.75,11.34,8.56A23.61,23.61,0,0,1,67.88,142a15.44,15.44,0,0,1,2.67,5.25,13,13,0,0,1,.42,3.83c0,3.83,0,7.73,0,11.5v4.67h0c0,.15,0,.52-.24.52a.83.83,0,0,1-.43-.18c-.46-.31-.9-.66-1.32-1l-.75-.59L66,164.28c-1.92-1.46-3.89-3-5.86-4.42C57.56,158,55,156,52.54,154.14l-1.71-1.31c-1.34-1-2.72-2.05-4.06-3L44,147.72l-5.9-4.44-5.17-3.9-2.64-2-3.61-2.71q-2-1.52-4-3.05c-1.68-1.29-3.42-2.63-5.15-3.92-1.22-.92-2.46-1.83-3.67-2.72-1.55-1.13-3.16-2.31-4.71-3.5-.64-.49-1.31-1-1.95-1.44-.89-.64-1.82-1.31-2.68-2a12.86,12.86,0,0,1-3.56-4.93A13.07,13.07,0,0,1,0,107.62c0-11,0-22.22,0-33.05V57H0a1.32,1.32,0,0,0,0-.28c0-.37,0-.5.13-.56A.2.2,0,0,1,.25,56.17ZM155.11,23.11l.07,0s.08,0,.09.19a4.67,4.67,0,0,1,0,.53V78.66c0,10.8,0,22,0,32.92a10.75,10.75,0,0,1-1,4.46l-.24.46a13.45,13.45,0,0,1-3.09,4.18,31.2,31.2,0,0,1-3.17,2.42c-1.64,1.12-3.28,2.32-4.87,3.48l-.4.32c-2.07,1.52-4.14,3.07-6.26,4.66l-3.73,2.8c-1.84,1.39-3.75,2.82-5.63,4.21L122,142.2l-3.36,2.47c-2,1.48-4.07,3-6.31,4.7a.89.89,0,0,1-.49.25l-.13,0c-.12,0-.15-.09-.16-.31V129.93h0a11,11,0,0,1,2.17-5.9c1.82-2.81,4.45-5.13,8.54-7.53l.76-.44a38.94,38.94,0,0,0,4.61-3,28.79,28.79,0,0,0,6.84-7.56,16.87,16.87,0,0,0,2.64-9.11c0-11.09,0-22.36,0-33.26V48h0c0-.49,0-1,0-1.44a21.62,21.62,0,0,1,0-2.67c.36-4.21,1.52-7.37,3.66-9.89a11.84,11.84,0,0,1,2.07-1.79l.39-.29c1.72-1.28,3.48-2.57,5.18-3.82L152,25.43c.61-.46,1.22-.92,1.8-1.38l1-.75,0,0A.61.61,0,0,1,155.11,23.11ZM.43,22.69A1.16,1.16,0,0,1,1,23l.23.2Q4.42,25.63,7.59,28l2.92,2.2,7.14,5.37,3.62,2.69L24.4,40.6q3.54,2.64,7.07,5.29l3.6,2.7,2.71,2c2,1.46,4,3,5.95,4.48s3.89,2.94,5.79,4.36c1.37,1,2.79,2.07,4.16,3.12l2,1.55c2.31,1.76,4.7,3.59,7.11,5.3.51.36,1,.74,1.52,1.11s1,.75,1.52,1.11A11.83,11.83,0,0,1,70,77.12,17.78,17.78,0,0,1,71.18,85c-.05.73-.07,1.45-.07,2.14v9.78h0c0,7.75,0,15.77,0,23.65,0,1.78,0,3.56,0,5.34L71,133.61h0v.17h0c0,.31,0,.35-.11.39a.35.35,0,0,1-.14,0,.84.84,0,0,1-.51-.24c-1.07-.91-2.21-1.75-3.32-2.56l-1.46-1.08c-.75-.57-1.53-1.14-2.28-1.69-1.33-1-2.7-2-4-3-.47-.38-1-.73-1.45-1.06a10.9,10.9,0,0,1-4.9-6.41,26.12,26.12,0,0,1-1.22-9.24,25.61,25.61,0,0,1,.26-3,35.72,35.72,0,0,0,.43-6.28,5.33,5.33,0,0,1,0-.56,33.11,33.11,0,0,0-.78-7.37A20.4,20.4,0,0,0,50,87,24.76,24.76,0,0,0,48.38,84a12.21,12.21,0,0,0-3.19-3.25c-4.71-3.51-9-6.73-13.13-9.84C30,69.34,28,67.79,25.91,66.24L20.82,62.4l-5.08-3.82L13.22,56.7c-.69-.53-1.39-1-2.09-1.55C9.52,54,7.85,52.72,6.25,51.44a17.67,17.67,0,0,1-4.17-4.71L2,46.64a14.4,14.4,0,0,1-2-7.28V23.44H0c0-.42,0-.61.22-.71A.33.33,0,0,1,.43,22.69ZM132.76,0a7.78,7.78,0,0,1,3.91,1.25c.26.14.51.26.77.41,2.08,1.05,4.2,2.1,6.26,3.11l3.14,1.55,1.1.53,3.46,1.71c.08,0,.21.13.23.24s-.07.21-.22.34c-.39.32-.82.62-1.23.91l-.61.42-2.43,1.77c-1.69,1.23-3.43,2.5-5.16,3.73-1.28.92-2.6,1.84-3.87,2.74l-4.1,2.9-4.26,3.1-3.24,2.37c-2,1.48-4.09,3-6.14,4.42l-3.09,2.23L103,44l-2.53,1.84c-1.76,1.27-3.58,2.59-5.39,3.86-2,1.41-4,2.88-6,4.31-1.67,1.21-3.39,2.46-5.1,3.68A7.2,7.2,0,0,1,80,59H79a11.47,11.47,0,0,1-4.19-.67,5.22,5.22,0,0,1-1.07-.57l-3.67-2.59c-2.29-1.63-4.67-3.31-7-4.93L60.78,48.7c-1.34-1-2.73-1.93-4.12-2.84-.82-.53-1.6-1.12-2.37-1.69-.48-.36-1-.74-1.5-1.1-.88-.63-1.77-1.24-2.66-1.84L47.65,39.5l-3-2.16-3.44-2.45-3.41-2.37c-1.07-.73-2.12-1.46-3.18-2.2l-2.64-1.88-2.24-1.6q-1.51-1.07-3-2.1c-.92-.67-1.84-1.31-2.76-2L21.35,21c-.91-.66-1.84-1.32-2.77-2L9.42,12.57l-3.31-2.3-.52-.36c-.35-.25-.72-.5-1.07-.76-.18-.14-.24-.26-.24-.3s.1-.17.34-.29c.77-.4,1.53-.79,2.3-1.21C8.24,6.65,9.61,5.93,11,5.27s2.65-1.34,3.93-2c1.62-.86,3.3-1.74,5-2.52A8,8,0,0,1,23.35,0a13,13,0,0,1,7,2.32C34.14,5,38,7.67,41.75,10.23l5.74,3.94L50,15.89c1.42,1,2.89,1.95,4.3,3s2.84,2,4.24,2.92c.82.56,1.64,1.11,2.46,1.68l1.84,1.26c2.69,1.85,5.47,3.77,8.18,5.69a12.32,12.32,0,0,0,7.35,2.69c.21,0,.42,0,.64,0a18.54,18.54,0,0,0,4.37-1,18.38,18.38,0,0,0,5.36-3.05l.52-.38c1.26-.91,2.55-1.82,3.81-2.7l2.46-1.73,4.33-3.1,5.43-3.87,4.23-3,4.9-3.46c3.68-2.63,6.91-4.94,9.9-7.11C127.81,1.22,130.57,0,132.76,0Z"/></g></g></g></svg>